<?xml version="1.0" encoding="UTF-8" standalone="no"?>
<!DOCTYPE svg PUBLIC "-//W3C//DTD SVG 1.1//EN"
 "http://www.w3.org/Graphics/SVG/1.1/DTD/svg11.dtd">
<!-- Generated by graphviz version 2.47.0 (20210316.0004)
 -->
<!-- Title: G Pages: 1 -->
<svg width="142pt" height="40pt"
 viewBox="0.00 0.00 142.00 40.00" xmlns="http://www.w3.org/2000/svg" xmlns:xlink="http://www.w3.org/1999/xlink">
<g id="graph0" class="graph" transform="scale(1 1) rotate(0) translate(4 36)">
<title>G</title>
<polygon fill="white" stroke="transparent" points="-4,4 -4,-36 138,-36 138,4 -4,4"/>
<!-- node140340036354416 -->
<g id="node1" class="node">
<title>node140340036354416</title>
<polygon fill="none" stroke="black" stroke-width="0.5" points="134,-32 0,-32 0,0 134,0 134,-32"/>
<polygon fill="#fefecd" stroke="transparent" points="1,-19 1,-31 20,-31 20,-19 1,-19"/>
<polyline fill="none" stroke="black" points="1,-19 20,-19 20,-31 "/>
<text text-anchor="start" x="7.5" y="-22.8" font-family="Helvetica,sans-Serif" font-size="9.00" fill="#444443">0</text>
<polygon fill="#fefecd" stroke="transparent" points="20,-19 20,-31 33,-31 33,-19 20,-19"/>
<polyline fill="none" stroke="black" points="20,-19 33,-19 33,-31 "/>
<text text-anchor="start" x="23.5" y="-22.8" font-family="Helvetica,sans-Serif" font-size="9.00" fill="#444443">1</text>
<polygon fill="#fefecd" stroke="transparent" points="33,-19 33,-31 46,-31 46,-19 33,-19"/>
<polyline fill="none" stroke="black" points="33,-19 46,-19 46,-31 "/>
<text text-anchor="start" x="36.5" y="-22.8" font-family="Helvetica,sans-Serif" font-size="9.00" fill="#444443">2</text>
<polygon fill="#fefecd" stroke="transparent" points="46,-19 46,-31 59,-31 59,-19 46,-19"/>
<polyline fill="none" stroke="black" points="46,-19 59,-19 59,-31 "/>
<text text-anchor="start" x="49.5" y="-22.8" font-family="Helvetica,sans-Serif" font-size="9.00" fill="#444443">3</text>
<polygon fill="#fefecd" stroke="transparent" points="59,-19 59,-31 78,-31 78,-19 59,-19"/>
<polyline fill="none" stroke="black" points="59,-19 78,-19 78,-31 "/>
<text text-anchor="start" x="65.5" y="-22.8" font-family="Helvetica,sans-Serif" font-size="9.00" fill="#444443">4</text>
<polygon fill="#fefecd" stroke="transparent" points="78,-19 78,-31 97,-31 97,-19 78,-19"/>
<polyline fill="none" stroke="black" points="78,-19 97,-19 97,-31 "/>
<text text-anchor="start" x="84.5" y="-22.8" font-family="Helvetica,sans-Serif" font-size="9.00" fill="#444443">5</text>
<polygon fill="#fefecd" stroke="transparent" points="97,-19 97,-31 116,-31 116,-19 97,-19"/>
<polyline fill="none" stroke="black" points="97,-19 116,-19 116,-31 "/>
<text text-anchor="start" x="103.5" y="-22.8" font-family="Helvetica,sans-Serif" font-size="9.00" fill="#444443">6</text>
<polygon fill="#fefecd" stroke="transparent" points="116,-19 116,-31 133,-31 133,-19 116,-19"/>
<polyline fill="none" stroke="black" points="116,-19 133,-19 "/>
<text text-anchor="start" x="121.5" y="-22.8" font-family="Helvetica,sans-Serif" font-size="9.00" fill="#444443">7</text>
<polygon fill="#fefecd" stroke="transparent" points="1,-1 1,-19 20,-19 20,-1 1,-1"/>
<polyline fill="none" stroke="black" points="20,-1 20,-19 "/>
<text text-anchor="start" x="4" y="-7.2" font-family="Helvetica,sans-Serif" font-size="11.00" fill="#444443">11</text>
<polygon fill="#fefecd" stroke="transparent" points="20,-1 20,-19 33,-19 33,-1 20,-1"/>
<polyline fill="none" stroke="black" points="33,-1 33,-19 "/>
<text text-anchor="start" x="23" y="-7.2" font-family="Helvetica,sans-Serif" font-size="11.00" fill="#444443">0</text>
<polygon fill="#fefecd" stroke="transparent" points="33,-1 33,-19 46,-19 46,-1 33,-1"/>
<polyline fill="none" stroke="black" points="46,-1 46,-19 "/>
<text text-anchor="start" x="36" y="-7.2" font-family="Helvetica,sans-Serif" font-size="11.00" fill="#444443">0</text>
<polygon fill="#fefecd" stroke="transparent" points="46,-1 46,-19 59,-19 59,-1 46,-1"/>
<polyline fill="none" stroke="black" points="59,-1 59,-19 "/>
<text text-anchor="start" x="49" y="-7.2" font-family="Helvetica,sans-Serif" font-size="11.00" fill="#444443">0</text>
<polygon fill="#fefecd" stroke="transparent" points="59,-1 59,-19 78,-19 78,-1 59,-1"/>
<polyline fill="none" stroke="black" points="78,-1 78,-19 "/>
<text text-anchor="start" x="62" y="-7.2" font-family="Helvetica,sans-Serif" font-size="11.00" fill="#444443">55</text>
<polygon fill="#fefecd" stroke="transparent" points="78,-1 78,-19 97,-19 97,-1 78,-1"/>
<polyline fill="none" stroke="black" points="97,-1 97,-19 "/>
<text text-anchor="start" x="81" y="-7.2" font-family="Helvetica,sans-Serif" font-size="11.00" fill="#444443">66</text>
<polygon fill="#fefecd" stroke="transparent" points="97,-1 97,-19 116,-19 116,-1 97,-1"/>
<polyline fill="none" stroke="black" points="116,-1 116,-19 "/>
<text text-anchor="start" x="100" y="-7.2" font-family="Helvetica,sans-Serif" font-size="11.00" fill="#444443">77</text>
<polygon fill="#fefecd" stroke="transparent" points="116,-1 116,-19 133,-19 133,-1 116,-1"/>
<text text-anchor="start" x="118" y="-7.2" font-family="Helvetica,sans-Serif" font-size="11.00" fill="#444443">88</text>
</g>
</g>
</svg>
