<?xml version="1.0" encoding="UTF-8" standalone="no"?>
<!DOCTYPE svg PUBLIC "-//W3C//DTD SVG 1.1//EN"
 "http://www.w3.org/Graphics/SVG/1.1/DTD/svg11.dtd">
<!-- Generated by graphviz version 2.47.0 (20210316.0004)
 -->
<!-- Title: G Pages: 1 -->
<svg width="112pt" height="40pt"
 viewBox="0.00 0.00 112.00 40.00" xmlns="http://www.w3.org/2000/svg" xmlns:xlink="http://www.w3.org/1999/xlink">
<g id="graph0" class="graph" transform="scale(1 1) rotate(0) translate(4 36)">
<title>G</title>
<polygon fill="white" stroke="transparent" points="-4,4 -4,-36 108,-36 108,4 -4,4"/>
<!-- node140528401266528 -->
<g id="node1" class="node">
<title>node140528401266528</title>
<polygon fill="none" stroke="black" stroke-width="0.5" points="104,-32 0,-32 0,0 104,0 104,-32"/>
<polygon fill="#fefecd" stroke="transparent" points="1,-19 1,-31 14,-31 14,-19 1,-19"/>
<polyline fill="none" stroke="black" points="1,-19 14,-19 14,-31 "/>
<text text-anchor="start" x="4.5" y="-22.8" font-family="Helvetica,sans-Serif" font-size="9.00" fill="#444443">0</text>
<polygon fill="#fefecd" stroke="transparent" points="14,-19 14,-31 27,-31 27,-19 14,-19"/>
<polyline fill="none" stroke="black" points="14,-19 27,-19 27,-31 "/>
<text text-anchor="start" x="17.5" y="-22.8" font-family="Helvetica,sans-Serif" font-size="9.00" fill="#444443">1</text>
<polygon fill="#fefecd" stroke="transparent" points="27,-19 27,-31 40,-31 40,-19 27,-19"/>
<polyline fill="none" stroke="black" points="27,-19 40,-19 40,-31 "/>
<text text-anchor="start" x="30.5" y="-22.8" font-family="Helvetica,sans-Serif" font-size="9.00" fill="#444443">2</text>
<polygon fill="#fefecd" stroke="transparent" points="40,-19 40,-31 53,-31 53,-19 40,-19"/>
<polyline fill="none" stroke="black" points="40,-19 53,-19 53,-31 "/>
<text text-anchor="start" x="43.5" y="-22.8" font-family="Helvetica,sans-Serif" font-size="9.00" fill="#444443">3</text>
<polygon fill="#fefecd" stroke="transparent" points="53,-19 53,-31 66,-31 66,-19 53,-19"/>
<polyline fill="none" stroke="black" points="53,-19 66,-19 66,-31 "/>
<text text-anchor="start" x="56.5" y="-22.8" font-family="Helvetica,sans-Serif" font-size="9.00" fill="#444443">4</text>
<polygon fill="#fefecd" stroke="transparent" points="66,-19 66,-31 79,-31 79,-19 66,-19"/>
<polyline fill="none" stroke="black" points="66,-19 79,-19 79,-31 "/>
<text text-anchor="start" x="69.5" y="-22.8" font-family="Helvetica,sans-Serif" font-size="9.00" fill="#444443">5</text>
<polygon fill="#fefecd" stroke="transparent" points="79,-19 79,-31 92,-31 92,-19 79,-19"/>
<polyline fill="none" stroke="black" points="79,-19 92,-19 92,-31 "/>
<text text-anchor="start" x="82.5" y="-22.8" font-family="Helvetica,sans-Serif" font-size="9.00" fill="#444443">6</text>
<polygon fill="#fefecd" stroke="transparent" points="92,-19 92,-31 103,-31 103,-19 92,-19"/>
<polyline fill="none" stroke="black" points="92,-19 103,-19 "/>
<text text-anchor="start" x="94.5" y="-22.8" font-family="Helvetica,sans-Serif" font-size="9.00" fill="#444443">7</text>
<polygon fill="#fefecd" stroke="transparent" points="1,-1 1,-19 14,-19 14,-1 1,-1"/>
<polyline fill="none" stroke="black" points="14,-1 14,-19 "/>
<text text-anchor="start" x="4" y="-7.2" font-family="Helvetica,sans-Serif" font-size="11.00" fill="#444443">1</text>
<polygon fill="#fefecd" stroke="transparent" points="14,-1 14,-19 27,-19 27,-1 14,-1"/>
<polyline fill="none" stroke="black" points="27,-1 27,-19 "/>
<text text-anchor="start" x="17" y="-7.2" font-family="Helvetica,sans-Serif" font-size="11.00" fill="#444443">1</text>
<polygon fill="#fefecd" stroke="transparent" points="27,-1 27,-19 40,-19 40,-1 27,-1"/>
<polyline fill="none" stroke="black" points="40,-1 40,-19 "/>
<text text-anchor="start" x="30" y="-7.2" font-family="Helvetica,sans-Serif" font-size="11.00" fill="#444443">1</text>
<polygon fill="#fefecd" stroke="transparent" points="40,-1 40,-19 53,-19 53,-1 40,-1"/>
<polyline fill="none" stroke="black" points="53,-1 53,-19 "/>
<text text-anchor="start" x="43" y="-7.2" font-family="Helvetica,sans-Serif" font-size="11.00" fill="#444443">1</text>
<polygon fill="#fefecd" stroke="transparent" points="53,-1 53,-19 66,-19 66,-1 53,-1"/>
<polyline fill="none" stroke="black" points="66,-1 66,-19 "/>
<text text-anchor="start" x="56" y="-7.2" font-family="Helvetica,sans-Serif" font-size="11.00" fill="#444443">1</text>
<polygon fill="#fefecd" stroke="transparent" points="66,-1 66,-19 79,-19 79,-1 66,-1"/>
<polyline fill="none" stroke="black" points="79,-1 79,-19 "/>
<text text-anchor="start" x="69" y="-7.2" font-family="Helvetica,sans-Serif" font-size="11.00" fill="#444443">1</text>
<polygon fill="#fefecd" stroke="transparent" points="79,-1 79,-19 92,-19 92,-1 79,-1"/>
<polyline fill="none" stroke="black" points="92,-1 92,-19 "/>
<text text-anchor="start" x="82" y="-7.2" font-family="Helvetica,sans-Serif" font-size="11.00" fill="#444443">1</text>
<polygon fill="#fefecd" stroke="transparent" points="92,-1 92,-19 103,-19 103,-1 92,-1"/>
<text text-anchor="start" x="94" y="-7.2" font-family="Helvetica,sans-Serif" font-size="11.00" fill="#444443">1</text>
</g>
</g>
</svg>
