<?xml version="1.0" encoding="UTF-8" standalone="no"?>
<!DOCTYPE svg PUBLIC "-//W3C//DTD SVG 1.1//EN"
 "http://www.w3.org/Graphics/SVG/1.1/DTD/svg11.dtd">
<!-- Generated by graphviz version 2.47.0 (20210316.0004)
 -->
<!-- Title: G Pages: 1 -->
<svg width="70pt" height="136pt"
 viewBox="0.00 0.00 70.00 136.00" xmlns="http://www.w3.org/2000/svg" xmlns:xlink="http://www.w3.org/1999/xlink">
<g id="graph0" class="graph" transform="scale(1 1) rotate(0) translate(4 132)">
<title>G</title>
<polygon fill="white" stroke="transparent" points="-4,4 -4,-132 66,-132 66,4 -4,4"/>
<!-- node140340036278352 -->
<g id="node1" class="node">
<title>node140340036278352</title>
<polygon fill="none" stroke="black" stroke-width="0.5" points="62,-128 0,-128 0,0 62,0 62,-128"/>
<polygon fill="#fefecd" stroke="transparent" points="1,-113 1,-127 13,-127 13,-113 1,-113"/>
<polyline fill="none" stroke="black" points="13,-113 13,-127 "/>
<text text-anchor="start" x="2" y="-117.2" font-family="Helvetica,sans-Serif" font-size="11.00" fill="#444443">0 </text>
<polygon fill="#fefecd" stroke="transparent" points="13,-113 13,-127 61,-127 61,-113 13,-113"/>
<text text-anchor="start" x="14" y="-117.2" font-family="Helvetica,sans-Serif" font-size="11.00" fill="#444443"> 5.4e&#45;323</text>
<polygon fill="#fefecd" stroke="transparent" points="1,-111 1,-113 61,-113 61,-111 1,-111"/>
<polygon fill="#fefecd" stroke="transparent" points="1,-97 1,-111 13,-111 13,-97 1,-97"/>
<polyline fill="none" stroke="black" points="13,-97 13,-111 "/>
<text text-anchor="start" x="2" y="-101.2" font-family="Helvetica,sans-Serif" font-size="11.00" fill="#444443">1 </text>
<polygon fill="#fefecd" stroke="transparent" points="13,-97 13,-111 61,-111 61,-97 13,-97"/>
<text text-anchor="start" x="14" y="-101.2" font-family="Helvetica,sans-Serif" font-size="11.00" fill="#444443"> 5.4e&#45;323</text>
<polygon fill="#fefecd" stroke="transparent" points="1,-95 1,-97 61,-97 61,-95 1,-95"/>
<polygon fill="#fefecd" stroke="transparent" points="1,-81 1,-95 13,-95 13,-81 1,-81"/>
<polyline fill="none" stroke="black" points="13,-81 13,-95 "/>
<text text-anchor="start" x="2" y="-85.2" font-family="Helvetica,sans-Serif" font-size="11.00" fill="#444443">2 </text>
<polygon fill="#fefecd" stroke="transparent" points="13,-81 13,-95 61,-95 61,-81 13,-81"/>
<text text-anchor="start" x="14" y="-85.2" font-family="Helvetica,sans-Serif" font-size="11.00" fill="#444443"> 5.4e&#45;323</text>
<polygon fill="#fefecd" stroke="transparent" points="1,-79 1,-81 61,-81 61,-79 1,-79"/>
<polygon fill="#fefecd" stroke="transparent" points="1,-65 1,-79 13,-79 13,-65 1,-65"/>
<polyline fill="none" stroke="black" points="13,-65 13,-79 "/>
<text text-anchor="start" x="2" y="-69.2" font-family="Helvetica,sans-Serif" font-size="11.00" fill="#444443">3 </text>
<polygon fill="#fefecd" stroke="transparent" points="13,-65 13,-79 61,-79 61,-65 13,-65"/>
<text text-anchor="start" x="14" y="-69.2" font-family="Helvetica,sans-Serif" font-size="11.00" fill="#444443"> 5.4e&#45;323</text>
<polygon fill="#fefecd" stroke="transparent" points="1,-63 1,-65 61,-65 61,-63 1,-63"/>
<polygon fill="#fefecd" stroke="transparent" points="1,-49 1,-63 13,-63 13,-49 1,-49"/>
<polyline fill="none" stroke="black" points="13,-49 13,-63 "/>
<text text-anchor="start" x="2" y="-53.2" font-family="Helvetica,sans-Serif" font-size="11.00" fill="#444443">4 </text>
<polygon fill="#fefecd" stroke="transparent" points="13,-49 13,-63 61,-63 61,-49 13,-49"/>
<text text-anchor="start" x="14" y="-53.2" font-family="Helvetica,sans-Serif" font-size="11.00" fill="#444443"> 5.4e&#45;323</text>
<polygon fill="#fefecd" stroke="transparent" points="1,-47 1,-49 61,-49 61,-47 1,-47"/>
<polygon fill="#fefecd" stroke="transparent" points="1,-33 1,-47 13,-47 13,-33 1,-33"/>
<polyline fill="none" stroke="black" points="13,-33 13,-47 "/>
<text text-anchor="start" x="2" y="-37.2" font-family="Helvetica,sans-Serif" font-size="11.00" fill="#444443">5 </text>
<polygon fill="#fefecd" stroke="transparent" points="13,-33 13,-47 61,-47 61,-33 13,-33"/>
<text text-anchor="start" x="14" y="-37.2" font-family="Helvetica,sans-Serif" font-size="11.00" fill="#444443"> 5.4e&#45;323</text>
<polygon fill="#fefecd" stroke="transparent" points="1,-31 1,-33 61,-33 61,-31 1,-31"/>
<polygon fill="#fefecd" stroke="transparent" points="1,-17 1,-31 13,-31 13,-17 1,-17"/>
<polyline fill="none" stroke="black" points="13,-17 13,-31 "/>
<text text-anchor="start" x="2" y="-21.2" font-family="Helvetica,sans-Serif" font-size="11.00" fill="#444443">6 </text>
<polygon fill="#fefecd" stroke="transparent" points="13,-17 13,-31 61,-31 61,-17 13,-17"/>
<text text-anchor="start" x="14" y="-21.2" font-family="Helvetica,sans-Serif" font-size="11.00" fill="#444443"> 5.4e&#45;323</text>
<polygon fill="#fefecd" stroke="transparent" points="1,-15 1,-17 61,-17 61,-15 1,-15"/>
<polygon fill="#fefecd" stroke="transparent" points="1,-1 1,-15 13,-15 13,-1 1,-1"/>
<polyline fill="none" stroke="black" points="13,-1 13,-15 "/>
<text text-anchor="start" x="2" y="-5.2" font-family="Helvetica,sans-Serif" font-size="11.00" fill="#444443">7 </text>
<polygon fill="#fefecd" stroke="transparent" points="13,-1 13,-15 61,-15 61,-1 13,-1"/>
<text text-anchor="start" x="14" y="-5.2" font-family="Helvetica,sans-Serif" font-size="11.00" fill="#444443"> 5.4e&#45;323</text>
</g>
</g>
</svg>
