<?xml version="1.0" encoding="UTF-8" standalone="no"?>
<!DOCTYPE svg PUBLIC "-//W3C//DTD SVG 1.1//EN"
 "http://www.w3.org/Graphics/SVG/1.1/DTD/svg11.dtd">
<!-- Generated by graphviz version 2.47.0 (20210316.0004)
 -->
<!-- Title: G Pages: 1 -->
<svg width="103pt" height="40pt"
 viewBox="0.00 0.00 103.00 40.00" xmlns="http://www.w3.org/2000/svg" xmlns:xlink="http://www.w3.org/1999/xlink">
<g id="graph0" class="graph" transform="scale(1 1) rotate(0) translate(4 36)">
<title>G</title>
<polygon fill="white" stroke="transparent" points="-4,4 -4,-36 99,-36 99,4 -4,4"/>
<!-- node140340036277952 -->
<g id="node1" class="node">
<title>node140340036277952</title>
<polygon fill="none" stroke="black" stroke-width="0.5" points="95,-32 0,-32 0,0 95,0 95,-32"/>
<polygon fill="#fefecd" stroke="transparent" points="1.5,-19 1.5,-31 20.5,-31 20.5,-19 1.5,-19"/>
<polyline fill="none" stroke="black" points="1.5,-19 20.5,-19 20.5,-31 "/>
<text text-anchor="start" x="8" y="-22.8" font-family="Helvetica,sans-Serif" font-size="9.00" fill="#444443">0</text>
<polygon fill="#fefecd" stroke="transparent" points="20.5,-19 20.5,-31 39.5,-31 39.5,-19 20.5,-19"/>
<polyline fill="none" stroke="black" points="20.5,-19 39.5,-19 39.5,-31 "/>
<text text-anchor="start" x="27" y="-22.8" font-family="Helvetica,sans-Serif" font-size="9.00" fill="#444443">1</text>
<polygon fill="#fefecd" stroke="transparent" points="39.5,-19 39.5,-31 58.5,-31 58.5,-19 39.5,-19"/>
<polyline fill="none" stroke="black" points="39.5,-19 58.5,-19 58.5,-31 "/>
<text text-anchor="start" x="46" y="-22.8" font-family="Helvetica,sans-Serif" font-size="9.00" fill="#444443">2</text>
<polygon fill="#fefecd" stroke="transparent" points="58.5,-19 58.5,-31 77.5,-31 77.5,-19 58.5,-19"/>
<polyline fill="none" stroke="black" points="58.5,-19 77.5,-19 77.5,-31 "/>
<text text-anchor="start" x="65" y="-22.8" font-family="Helvetica,sans-Serif" font-size="9.00" fill="#444443">3</text>
<polygon fill="#fefecd" stroke="transparent" points="77.5,-19 77.5,-31 94.5,-31 94.5,-19 77.5,-19"/>
<polyline fill="none" stroke="black" points="77.5,-19 94.5,-19 "/>
<text text-anchor="start" x="83" y="-22.8" font-family="Helvetica,sans-Serif" font-size="9.00" fill="#444443">4</text>
<polygon fill="#fefecd" stroke="transparent" points="1.5,-1 1.5,-19 20.5,-19 20.5,-1 1.5,-1"/>
<polyline fill="none" stroke="black" points="20.5,-1 20.5,-19 "/>
<text text-anchor="start" x="4.5" y="-7.2" font-family="Helvetica,sans-Serif" font-size="11.00" fill="#444443">11</text>
<polygon fill="#fefecd" stroke="transparent" points="20.5,-1 20.5,-19 39.5,-19 39.5,-1 20.5,-1"/>
<polyline fill="none" stroke="black" points="39.5,-1 39.5,-19 "/>
<text text-anchor="start" x="23.5" y="-7.2" font-family="Helvetica,sans-Serif" font-size="11.00" fill="#444443">30</text>
<polygon fill="#fefecd" stroke="transparent" points="39.5,-1 39.5,-19 58.5,-19 58.5,-1 39.5,-1"/>
<polyline fill="none" stroke="black" points="58.5,-1 58.5,-19 "/>
<text text-anchor="start" x="42.5" y="-7.2" font-family="Helvetica,sans-Serif" font-size="11.00" fill="#444443">49</text>
<polygon fill="#fefecd" stroke="transparent" points="58.5,-1 58.5,-19 77.5,-19 77.5,-1 58.5,-1"/>
<polyline fill="none" stroke="black" points="77.5,-1 77.5,-19 "/>
<text text-anchor="start" x="61.5" y="-7.2" font-family="Helvetica,sans-Serif" font-size="11.00" fill="#444443">68</text>
<polygon fill="#fefecd" stroke="transparent" points="77.5,-1 77.5,-19 94.5,-19 94.5,-1 77.5,-1"/>
<text text-anchor="start" x="79.5" y="-7.2" font-family="Helvetica,sans-Serif" font-size="11.00" fill="#444443">88</text>
</g>
</g>
</svg>
