<?xml version="1.0" encoding="UTF-8" standalone="no"?>
<!DOCTYPE svg PUBLIC "-//W3C//DTD SVG 1.1//EN"
 "http://www.w3.org/Graphics/SVG/1.1/DTD/svg11.dtd">
<!-- Generated by graphviz version 2.47.0 (20210316.0004)
 -->
<!-- Title: G Pages: 1 -->
<svg width="184pt" height="40pt"
 viewBox="0.00 0.00 184.00 40.00" xmlns="http://www.w3.org/2000/svg" xmlns:xlink="http://www.w3.org/1999/xlink">
<g id="graph0" class="graph" transform="scale(1 1) rotate(0) translate(4 36)">
<title>G</title>
<polygon fill="white" stroke="transparent" points="-4,4 -4,-36 180,-36 180,4 -4,4"/>
<!-- node140340036279872 -->
<g id="node1" class="node">
<title>node140340036279872</title>
<polygon fill="none" stroke="black" stroke-width="0.5" points="176,-32 0,-32 0,0 176,0 176,-32"/>
<polygon fill="#fefecd" stroke="transparent" points="1,-19 1,-31 20,-31 20,-19 1,-19"/>
<polyline fill="none" stroke="black" points="1,-19 20,-19 20,-31 "/>
<text text-anchor="start" x="7.5" y="-22.8" font-family="Helvetica,sans-Serif" font-size="9.00" fill="#444443">0</text>
<polygon fill="#fefecd" stroke="transparent" points="20,-19 20,-31 39,-31 39,-19 20,-19"/>
<polyline fill="none" stroke="black" points="20,-19 39,-19 39,-31 "/>
<text text-anchor="start" x="26.5" y="-22.8" font-family="Helvetica,sans-Serif" font-size="9.00" fill="#444443">1</text>
<polygon fill="#fefecd" stroke="transparent" points="39,-19 39,-31 58,-31 58,-19 39,-19"/>
<polyline fill="none" stroke="black" points="39,-19 58,-19 58,-31 "/>
<text text-anchor="start" x="45.5" y="-22.8" font-family="Helvetica,sans-Serif" font-size="9.00" fill="#444443">2</text>
<polygon fill="#fefecd" stroke="transparent" points="58,-19 58,-31 77,-31 77,-19 58,-19"/>
<polyline fill="none" stroke="black" points="58,-19 77,-19 77,-31 "/>
<text text-anchor="start" x="64.5" y="-22.8" font-family="Helvetica,sans-Serif" font-size="9.00" fill="#444443">3</text>
<polygon fill="#fefecd" stroke="transparent" points="77,-19 77,-31 102,-31 102,-19 77,-19"/>
<polyline fill="none" stroke="black" points="77,-19 102,-19 102,-31 "/>
<text text-anchor="start" x="86.5" y="-22.8" font-family="Helvetica,sans-Serif" font-size="9.00" fill="#444443">4</text>
<polygon fill="#fefecd" stroke="transparent" points="102,-19 102,-31 127,-31 127,-19 102,-19"/>
<polyline fill="none" stroke="black" points="102,-19 127,-19 127,-31 "/>
<text text-anchor="start" x="111.5" y="-22.8" font-family="Helvetica,sans-Serif" font-size="9.00" fill="#444443">5</text>
<polygon fill="#fefecd" stroke="transparent" points="127,-19 127,-31 152,-31 152,-19 127,-19"/>
<polyline fill="none" stroke="black" points="127,-19 152,-19 152,-31 "/>
<text text-anchor="start" x="136.5" y="-22.8" font-family="Helvetica,sans-Serif" font-size="9.00" fill="#444443">6</text>
<polygon fill="#fefecd" stroke="transparent" points="152,-19 152,-31 175,-31 175,-19 152,-19"/>
<polyline fill="none" stroke="black" points="152,-19 175,-19 "/>
<text text-anchor="start" x="160.5" y="-22.8" font-family="Helvetica,sans-Serif" font-size="9.00" fill="#444443">7</text>
<polygon fill="#fefecd" stroke="transparent" points="1,-1 1,-19 20,-19 20,-1 1,-1"/>
<polyline fill="none" stroke="black" points="20,-1 20,-19 "/>
<text text-anchor="start" x="4" y="-7.2" font-family="Helvetica,sans-Serif" font-size="11.00" fill="#444443">22</text>
<polygon fill="#fefecd" stroke="transparent" points="20,-1 20,-19 39,-19 39,-1 20,-1"/>
<polyline fill="none" stroke="black" points="39,-1 39,-19 "/>
<text text-anchor="start" x="23" y="-7.2" font-family="Helvetica,sans-Serif" font-size="11.00" fill="#444443">44</text>
<polygon fill="#fefecd" stroke="transparent" points="39,-1 39,-19 58,-19 58,-1 39,-1"/>
<polyline fill="none" stroke="black" points="58,-1 58,-19 "/>
<text text-anchor="start" x="42" y="-7.2" font-family="Helvetica,sans-Serif" font-size="11.00" fill="#444443">66</text>
<polygon fill="#fefecd" stroke="transparent" points="58,-1 58,-19 77,-19 77,-1 58,-1"/>
<polyline fill="none" stroke="black" points="77,-1 77,-19 "/>
<text text-anchor="start" x="61" y="-7.2" font-family="Helvetica,sans-Serif" font-size="11.00" fill="#444443">88</text>
<polygon fill="#fefecd" stroke="transparent" points="77,-1 77,-19 102,-19 102,-1 77,-1"/>
<polyline fill="none" stroke="black" points="102,-1 102,-19 "/>
<text text-anchor="start" x="80" y="-7.2" font-family="Helvetica,sans-Serif" font-size="11.00" fill="#444443">110</text>
<polygon fill="#fefecd" stroke="transparent" points="102,-1 102,-19 127,-19 127,-1 102,-1"/>
<polyline fill="none" stroke="black" points="127,-1 127,-19 "/>
<text text-anchor="start" x="105" y="-7.2" font-family="Helvetica,sans-Serif" font-size="11.00" fill="#444443">132</text>
<polygon fill="#fefecd" stroke="transparent" points="127,-1 127,-19 152,-19 152,-1 127,-1"/>
<polyline fill="none" stroke="black" points="152,-1 152,-19 "/>
<text text-anchor="start" x="130" y="-7.2" font-family="Helvetica,sans-Serif" font-size="11.00" fill="#444443">154</text>
<polygon fill="#fefecd" stroke="transparent" points="152,-1 152,-19 175,-19 175,-1 152,-1"/>
<text text-anchor="start" x="154" y="-7.2" font-family="Helvetica,sans-Serif" font-size="11.00" fill="#444443">176</text>
</g>
</g>
</svg>
