<?xml version="1.0" encoding="UTF-8" standalone="no"?>
<!DOCTYPE svg PUBLIC "-//W3C//DTD SVG 1.1//EN"
 "http://www.w3.org/Graphics/SVG/1.1/DTD/svg11.dtd">
<!-- Generated by graphviz version 2.47.0 (20210316.0004)
 -->
<!-- Title: G Pages: 1 -->
<svg width="141pt" height="40pt"
 viewBox="0.00 0.00 141.00 40.00" xmlns="http://www.w3.org/2000/svg" xmlns:xlink="http://www.w3.org/1999/xlink">
<g id="graph0" class="graph" transform="scale(1 1) rotate(0) translate(4 36)">
<title>G</title>
<polygon fill="white" stroke="transparent" points="-4,4 -4,-36 137,-36 137,4 -4,4"/>
<!-- node140425205884768 -->
<g id="node1" class="node">
<title>node140425205884768</title>
<polygon fill="none" stroke="black" stroke-width="0.5" points="133,-32 0,-32 0,0 133,0 133,-32"/>
<polygon fill="#fefecd" stroke="transparent" points="1.5,-19 1.5,-31 20.5,-31 20.5,-19 1.5,-19"/>
<polyline fill="none" stroke="black" points="1.5,-19 20.5,-19 20.5,-31 "/>
<text text-anchor="start" x="8" y="-22.8" font-family="Helvetica,sans-Serif" font-size="9.00" fill="#444443">0</text>
<polygon fill="#fefecd" stroke="transparent" points="20.5,-19 20.5,-31 39.5,-31 39.5,-19 20.5,-19"/>
<polyline fill="none" stroke="black" points="20.5,-19 39.5,-19 39.5,-31 "/>
<text text-anchor="start" x="27" y="-22.8" font-family="Helvetica,sans-Serif" font-size="9.00" fill="#444443">1</text>
<polygon fill="#fefecd" stroke="transparent" points="39.5,-19 39.5,-31 58.5,-31 58.5,-19 39.5,-19"/>
<polyline fill="none" stroke="black" points="39.5,-19 58.5,-19 58.5,-31 "/>
<text text-anchor="start" x="46" y="-22.8" font-family="Helvetica,sans-Serif" font-size="9.00" fill="#444443">2</text>
<polygon fill="#fefecd" stroke="transparent" points="58.5,-19 58.5,-31 77.5,-31 77.5,-19 58.5,-19"/>
<polyline fill="none" stroke="black" points="58.5,-19 77.5,-19 77.5,-31 "/>
<text text-anchor="start" x="65" y="-22.8" font-family="Helvetica,sans-Serif" font-size="9.00" fill="#444443">3</text>
<polygon fill="#fefecd" stroke="transparent" points="77.5,-19 77.5,-31 96.5,-31 96.5,-19 77.5,-19"/>
<polyline fill="none" stroke="black" points="77.5,-19 96.5,-19 96.5,-31 "/>
<text text-anchor="start" x="84" y="-22.8" font-family="Helvetica,sans-Serif" font-size="9.00" fill="#444443">4</text>
<polygon fill="#fefecd" stroke="transparent" points="96.5,-19 96.5,-31 115.5,-31 115.5,-19 96.5,-19"/>
<polyline fill="none" stroke="black" points="96.5,-19 115.5,-19 115.5,-31 "/>
<text text-anchor="start" x="103" y="-22.8" font-family="Helvetica,sans-Serif" font-size="9.00" fill="#444443">5</text>
<polygon fill="#fefecd" stroke="transparent" points="115.5,-19 115.5,-31 132.5,-31 132.5,-19 115.5,-19"/>
<polyline fill="none" stroke="black" points="115.5,-19 132.5,-19 "/>
<text text-anchor="start" x="121" y="-22.8" font-family="Helvetica,sans-Serif" font-size="9.00" fill="#444443">6</text>
<polygon fill="#fefecd" stroke="transparent" points="1.5,-1 1.5,-19 20.5,-19 20.5,-1 1.5,-1"/>
<polyline fill="none" stroke="black" points="20.5,-1 20.5,-19 "/>
<text text-anchor="start" x="4.5" y="-7.2" font-family="Helvetica,sans-Serif" font-size="11.00" fill="#444443">11</text>
<polygon fill="#fefecd" stroke="transparent" points="20.5,-1 20.5,-19 39.5,-19 39.5,-1 20.5,-1"/>
<polyline fill="none" stroke="black" points="39.5,-1 39.5,-19 "/>
<text text-anchor="start" x="23.5" y="-7.2" font-family="Helvetica,sans-Serif" font-size="11.00" fill="#444443">22</text>
<polygon fill="#fefecd" stroke="transparent" points="39.5,-1 39.5,-19 58.5,-19 58.5,-1 39.5,-1"/>
<polyline fill="none" stroke="black" points="58.5,-1 58.5,-19 "/>
<text text-anchor="start" x="42.5" y="-7.2" font-family="Helvetica,sans-Serif" font-size="11.00" fill="#444443">33</text>
<polygon fill="#fefecd" stroke="transparent" points="58.5,-1 58.5,-19 77.5,-19 77.5,-1 58.5,-1"/>
<polyline fill="none" stroke="black" points="77.5,-1 77.5,-19 "/>
<text text-anchor="start" x="61.5" y="-7.2" font-family="Helvetica,sans-Serif" font-size="11.00" fill="#444443">44</text>
<polygon fill="#fefecd" stroke="transparent" points="77.5,-1 77.5,-19 96.5,-19 96.5,-1 77.5,-1"/>
<polyline fill="none" stroke="black" points="96.5,-1 96.5,-19 "/>
<text text-anchor="start" x="80.5" y="-7.2" font-family="Helvetica,sans-Serif" font-size="11.00" fill="#444443">55</text>
<polygon fill="#fefecd" stroke="transparent" points="96.5,-1 96.5,-19 115.5,-19 115.5,-1 96.5,-1"/>
<polyline fill="none" stroke="black" points="115.5,-1 115.5,-19 "/>
<text text-anchor="start" x="99.5" y="-7.2" font-family="Helvetica,sans-Serif" font-size="11.00" fill="#444443">66</text>
<polygon fill="#fefecd" stroke="transparent" points="115.5,-1 115.5,-19 132.5,-19 132.5,-1 115.5,-1"/>
<text text-anchor="start" x="117.5" y="-7.2" font-family="Helvetica,sans-Serif" font-size="11.00" fill="#444443">77</text>
</g>
</g>
</svg>
