<?xml version="1.0" encoding="UTF-8" standalone="no"?>
<!DOCTYPE svg PUBLIC "-//W3C//DTD SVG 1.1//EN"
 "http://www.w3.org/Graphics/SVG/1.1/DTD/svg11.dtd">
<!-- Generated by graphviz version 2.47.0 (20210316.0004)
 -->
<!-- Title: G Pages: 1 -->
<svg width="184pt" height="40pt"
 viewBox="0.00 0.00 184.00 40.00" xmlns="http://www.w3.org/2000/svg" xmlns:xlink="http://www.w3.org/1999/xlink">
<g id="graph0" class="graph" transform="scale(1 1) rotate(0) translate(4 36)">
<title>G</title>
<polygon fill="white" stroke="transparent" points="-4,4 -4,-36 180,-36 180,4 -4,4"/>
<!-- node140326002209216 -->
<g id="node1" class="node">
<title>node140326002209216</title>
<polygon fill="none" stroke="black" stroke-width="0.5" points="176,-32 0,-32 0,0 176,0 176,-32"/>
<polygon fill="#fefecd" stroke="transparent" points="1,-19 1,-31 23,-31 23,-19 1,-19"/>
<polyline fill="none" stroke="black" points="1,-19 23,-19 23,-31 "/>
<text text-anchor="start" x="9" y="-22.8" font-family="Helvetica,sans-Serif" font-size="9.00" fill="#444443">0</text>
<polygon fill="#fefecd" stroke="transparent" points="23,-19 23,-31 45,-31 45,-19 23,-19"/>
<polyline fill="none" stroke="black" points="23,-19 45,-19 45,-31 "/>
<text text-anchor="start" x="31" y="-22.8" font-family="Helvetica,sans-Serif" font-size="9.00" fill="#444443">1</text>
<polygon fill="#fefecd" stroke="transparent" points="45,-19 45,-31 67,-31 67,-19 45,-19"/>
<polyline fill="none" stroke="black" points="45,-19 67,-19 67,-31 "/>
<text text-anchor="start" x="53" y="-22.8" font-family="Helvetica,sans-Serif" font-size="9.00" fill="#444443">2</text>
<polygon fill="#fefecd" stroke="transparent" points="67,-19 67,-31 89,-31 89,-19 67,-19"/>
<polyline fill="none" stroke="black" points="67,-19 89,-19 89,-31 "/>
<text text-anchor="start" x="75" y="-22.8" font-family="Helvetica,sans-Serif" font-size="9.00" fill="#444443">3</text>
<polygon fill="#fefecd" stroke="transparent" points="89,-19 89,-31 111,-31 111,-19 89,-19"/>
<polyline fill="none" stroke="black" points="89,-19 111,-19 111,-31 "/>
<text text-anchor="start" x="97" y="-22.8" font-family="Helvetica,sans-Serif" font-size="9.00" fill="#444443">4</text>
<polygon fill="#fefecd" stroke="transparent" points="111,-19 111,-31 133,-31 133,-19 111,-19"/>
<polyline fill="none" stroke="black" points="111,-19 133,-19 133,-31 "/>
<text text-anchor="start" x="119" y="-22.8" font-family="Helvetica,sans-Serif" font-size="9.00" fill="#444443">5</text>
<polygon fill="#fefecd" stroke="transparent" points="133,-19 133,-31 155,-31 155,-19 133,-19"/>
<polyline fill="none" stroke="black" points="133,-19 155,-19 155,-31 "/>
<text text-anchor="start" x="141" y="-22.8" font-family="Helvetica,sans-Serif" font-size="9.00" fill="#444443">6</text>
<polygon fill="#fefecd" stroke="transparent" points="155,-19 155,-31 175,-31 175,-19 155,-19"/>
<polyline fill="none" stroke="black" points="155,-19 175,-19 "/>
<text text-anchor="start" x="162" y="-22.8" font-family="Helvetica,sans-Serif" font-size="9.00" fill="#444443">7</text>
<polygon fill="#fefecd" stroke="transparent" points="1,-1 1,-19 23,-19 23,-1 1,-1"/>
<polyline fill="none" stroke="black" points="23,-1 23,-19 "/>
<text text-anchor="start" x="4" y="-7.2" font-family="Helvetica,sans-Serif" font-size="11.00" fill="#444443">0.0</text>
<polygon fill="#fefecd" stroke="transparent" points="23,-1 23,-19 45,-19 45,-1 23,-1"/>
<polyline fill="none" stroke="black" points="45,-1 45,-19 "/>
<text text-anchor="start" x="26" y="-7.2" font-family="Helvetica,sans-Serif" font-size="11.00" fill="#444443">0.0</text>
<polygon fill="#fefecd" stroke="transparent" points="45,-1 45,-19 67,-19 67,-1 45,-1"/>
<polyline fill="none" stroke="black" points="67,-1 67,-19 "/>
<text text-anchor="start" x="48" y="-7.2" font-family="Helvetica,sans-Serif" font-size="11.00" fill="#444443">0.0</text>
<polygon fill="#fefecd" stroke="transparent" points="67,-1 67,-19 89,-19 89,-1 67,-1"/>
<polyline fill="none" stroke="black" points="89,-1 89,-19 "/>
<text text-anchor="start" x="70" y="-7.2" font-family="Helvetica,sans-Serif" font-size="11.00" fill="#444443">0.0</text>
<polygon fill="#fefecd" stroke="transparent" points="89,-1 89,-19 111,-19 111,-1 89,-1"/>
<polyline fill="none" stroke="black" points="111,-1 111,-19 "/>
<text text-anchor="start" x="92" y="-7.2" font-family="Helvetica,sans-Serif" font-size="11.00" fill="#444443">0.0</text>
<polygon fill="#fefecd" stroke="transparent" points="111,-1 111,-19 133,-19 133,-1 111,-1"/>
<polyline fill="none" stroke="black" points="133,-1 133,-19 "/>
<text text-anchor="start" x="114" y="-7.2" font-family="Helvetica,sans-Serif" font-size="11.00" fill="#444443">0.0</text>
<polygon fill="#fefecd" stroke="transparent" points="133,-1 133,-19 155,-19 155,-1 133,-1"/>
<polyline fill="none" stroke="black" points="155,-1 155,-19 "/>
<text text-anchor="start" x="136" y="-7.2" font-family="Helvetica,sans-Serif" font-size="11.00" fill="#444443">0.0</text>
<polygon fill="#fefecd" stroke="transparent" points="155,-1 155,-19 175,-19 175,-1 155,-1"/>
<text text-anchor="start" x="157" y="-7.2" font-family="Helvetica,sans-Serif" font-size="11.00" fill="#444443">0.0</text>
</g>
</g>
</svg>
