<?xml version="1.0" encoding="utf-8"?>
<!-- Generator: Adobe Illustrator 24.0.2, SVG Export Plug-In . SVG Version: 6.00 Build 0)  -->
<svg version="1.1" id="Layer_1" xmlns="http://www.w3.org/2000/svg" xmlns:xlink="http://www.w3.org/1999/xlink" x="0px" y="0px"
	 viewBox="0 0 71.93 71.96" style="enable-background:new 0 0 71.93 71.96;" xml:space="preserve">
<style type="text/css">
	.st0{fill:#86D2E1;}
	.st1{fill:#010101;}
	.st2{fill:#272628;}
	.st3{fill:#FFFFFF;}
	.st4{fill:#020202;}
</style>
<g id="N89PTv.tif">
	<g>
		<circle class="st0" cx="35.98" cy="35.98" r="35.98"/>
		<path class="st1" d="M10.95,41.04c0.36-1.14,0.69-2.29,1.19-3.39c0.38-0.85,0.65-1.75,0.93-2.63c0.65-2.04,1.55-3.98,2.17-6.02
			c0.05-0.15,0.09-0.31,0.16-0.53c-0.87,0.37-1.66,0.74-2.47,1.05c-1.88,0.7-3.82,1.04-5.83,0.73c-0.83-0.13-0.94-0.33-0.64-1.13
			c0.5-1.33,1.36-2.4,2.4-3.35c1.71-1.56,3.66-2.73,5.71-3.77c1.21-0.61,2.44-1.19,3.71-1.68c0.24-0.09,0.36-0.26,0.44-0.49
			c0.41-1.21,0.76-2.44,1.25-3.61c0.71-1.66,1.16-3.42,1.89-5.07c0.37-0.82,0.93-1.57,1.67-2.14c1.21-0.94,3.07-0.76,4.11,0.4
			c0.54,0.6,1.12,1.18,1.43,2.13c1.08-3.58,3.19-5.69,6.98-5.66c3.76,0.02,5.85,2.14,6.87,5.69c0.32-0.73,0.61-1.3,1.03-1.78
			c1.04-1.19,2.49-1.73,3.95-1.08c0.88,0.39,1.46,1.08,1.89,1.91c0.74,1.4,1.28,2.88,1.78,4.38c0.33,0.99,0.62,2,1.03,2.96
			c0.22,0.52,0.4,1.05,0.58,1.58c0.21,0.64,0.79,0.9,1.35,1.13c1.28,0.51,2.5,1.12,3.72,1.75c1.95,1,3.74,2.22,5.3,3.75
			c0.92,0.91,1.77,1.92,2.1,3.24c0.14,0.55,0.04,0.71-0.51,0.8c-2.01,0.33-3.95,0.05-5.85-0.62c-0.76-0.26-1.5-0.57-2.2-0.95
			c-0.15-0.08-0.3-0.12-0.51-0.13c0.07,0.53,0.41,0.94,0.56,1.42c0.45,1.45,0.91,2.91,1.48,4.31c0.66,1.62,1.18,3.28,1.78,4.92
			c0.12,0.32,0.24,0.65,0.26,1c-0.18,0.19-0.42,0.16-0.65,0.16c-3.57,0-7.15,0-10.72,0c-0.21,0-0.43,0.01-0.62-0.1
			c-0.18-0.15-0.1-0.32-0.03-0.49c0.89-2.09,0.92-4.24,0.44-6.42c-0.41-1.86-1.17-3.6-2.18-5.19c-1.15-1.81-2.55-3.45-4.15-4.9
			c-0.08-0.08-0.17-0.15-0.34-0.17c0.05,0.28,0.22,0.45,0.34,0.65c0.52,0.87,0.79,1.8,0.58,2.82c-0.23,1.1-1.27,1.86-2.39,1.74
			c-0.46-0.05-0.9-0.16-1.32-0.38c-0.19-0.1-0.36-0.22-0.61-0.27c-0.1,0.22-0.03,0.45,0,0.66c0.07,0.48,0.01,0.95-0.03,1.42
			c-0.09,0.97-0.94,1.94-1.93,2.2c-0.93,0.25-1.87,0.19-2.73-0.26c-0.95-0.5-1.18-1.43-1.28-2.41c-0.06-0.56,0.04-1.11,0.13-1.72
			c-0.33,0.15-0.62,0.26-0.9,0.39c-0.6,0.28-1.24,0.32-1.88,0.26c-1.06-0.09-1.81-1.08-1.73-2.36c0.05-0.86,0.34-1.67,0.76-2.42
			c0.04-0.08,0.13-0.15,0.07-0.3c-0.45,0.26-0.79,0.64-1.12,1c-1.41,1.49-2.7,3.07-3.72,4.87c-0.92,1.61-1.53,3.29-1.83,5.1
			c-0.38,2.32-0.16,4.54,1.11,6.59c0.1,0.17,0.2,0.34,0.11,0.55c-0.17,0.2-0.41,0.18-0.64,0.18c-3.93,0.01-7.85,0.01-11.78-0.01
			C11.34,41.4,10.93,41.55,10.95,41.04z"/>
		<path class="st2" d="M48.58,40.04c0.11,0.17,0.29,0.12,0.45,0.12c3.87,0,7.74,0,11.61,0c0.64,0.99,0.85,2.14,1.25,3.22
			c0.99,2.65,1.89,5.33,2.92,7.96c0.32,0.82,0.59,1.6,0.33,2.44c-0.22,0.72-0.67,1.33-1.21,1.86c-1.37,1.33-3.05,2.13-4.83,2.74
			c-2.13,0.73-4.33,1.01-6.58,0.91c-2.25-0.1-4.32-0.73-6.11-2.11c-0.66-0.51-1.11-1.19-1.59-1.86c-0.96-1.35-1.23-2.97-1.8-4.47
			c-0.38-1.01-0.33-1.02-1.41-1.02c-3.79,0-7.58,0-11.37,0c-0.93,0-0.93,0-1.2,0.87c-0.46,1.46-0.94,2.92-1.65,4.28
			c-1.09,2.09-2.93,3.26-5.14,3.86c-3.38,0.92-6.69,0.48-9.95-0.66c-1.65-0.58-3.13-1.44-4.38-2.62c-0.95-0.89-1.44-2.02-1.03-3.38
			c0.46-1.51,1.09-2.96,1.63-4.45c0.37-1.02,0.71-2.04,1.08-3.06c0.45-1.21,0.92-2.4,1.38-3.61c0.03,0.23,0.21,0.21,0.37,0.21
			c4.09,0,8.17,0,12.26,0c0.16,0,0.34,0.04,0.38-0.2c0.35,0.06,0.55,0.33,0.78,0.55c1.61,1.6,3.57,2.33,5.82,2.26
			c1.52-0.05,2.88-0.59,4.1-1.47c0.41-0.3,0.61-0.69,0.6-1.22c-0.01-0.39-0.15-0.82,0.16-1.18c0.36-0.12,0.72-0.11,1.08-0.01
			c0.3,0.35,0.31,0.79,0.28,1.2c-0.05,0.64,0.22,1.05,0.75,1.37c0.95,0.56,1.96,0.92,3.05,1.16c1.44,0.31,2.79,0.04,4.09-0.44
			c1.46-0.53,2.62-1.54,3.5-2.84C48.29,40.29,48.35,40.08,48.58,40.04z"/>
		<path class="st3" d="M35.28,36.01c-0.03,0.04-0.06,0.07-0.1,0.1c-0.17,0.12-0.36,0.13-0.55,0.18c-0.24,0.06-0.47,0.15-0.68,0.27
			c-0.42,0.24-0.82,0.53-0.8,1.08c0.02,0.56,0.44,0.84,0.89,1.07c0.27,0.13,0.57,0.14,0.84,0.25c0.53,0.21,0.7,0.58,0.52,1.12
			c-0.01,0.38-0.05,0.76-0.01,1.13c0.09,0.72-0.32,1.12-0.84,1.47c-1.88,1.25-3.93,1.63-6.13,1.13c-1.49-0.34-2.76-1.07-3.83-2.16
			c-0.2-0.2-0.42-0.4-0.62-0.59c-1.82-2.75-1.75-5.7-0.94-8.73c0.25-0.94,0.6-1.84,1.05-2.69c1.09-2.05,2.48-3.89,4.1-5.55
			c0.37-0.38,0.77-0.75,1.17-1.1c0.11-0.1,0.25-0.23,0.38-0.1c0.12,0.11-0.03,0.24-0.09,0.34c-0.49,0.79-0.8,1.64-0.89,2.57
			c-0.1,1.06,0.51,2.06,1.42,2.24c0.6,0.11,1.21,0.12,1.79-0.14c0.44-0.2,0.92-0.32,1.36-0.62c-0.13,0.87-0.27,1.69-0.1,2.53
			c0.18,0.91,0.6,1.63,1.54,1.91c1.67,0.51,2.87,0.2,3.78-1.09c0.41-0.58,0.37-1.31,0.35-2c-0.01-0.31-0.01-0.62-0.12-0.92
			c-0.03-0.09-0.08-0.24,0.05-0.31c0.09-0.05,0.18,0.02,0.27,0.07c0.48,0.27,0.99,0.47,1.53,0.63c1.43,0.43,2.95-0.94,2.63-2.63
			c-0.16-0.83-0.49-1.57-0.97-2.25c-0.06-0.09-0.2-0.19-0.11-0.29c0.08-0.1,0.23-0.09,0.36,0.01c0.09,0.07,0.2,0.1,0.28,0.18
			c1.19,1.18,2.36,2.39,3.35,3.76c1.01,1.4,1.8,2.89,2.43,4.49c1.05,2.66,1.25,5.33,0.33,8.06c-0.08,0.23-0.28,0.38-0.32,0.62
			c-0.61,1.01-1.36,1.88-2.35,2.57c-1.45,1.01-3.09,1.47-4.77,1.37c-1.6-0.09-3.18-0.56-4.46-1.67c-0.23-0.2-0.35-0.41-0.35-0.71
			c0-0.51-0.03-1.02-0.04-1.52c-0.14-0.77-0.03-0.96,0.7-1.17c0.43-0.12,0.82-0.33,1.18-0.58c0.55-0.37,0.54-1.11-0.01-1.47
			c-0.54-0.35-1.12-0.6-1.75-0.74"/>
		<path class="st1" d="M36.77,36.02c0.61,0.1,1.15,0.35,1.68,0.65c0.36,0.2,0.56,0.5,0.58,0.9c0.02,0.41-0.17,0.75-0.52,0.94
			c-0.46,0.24-0.9,0.53-1.44,0.58c-0.28,0.02-0.39,0.21-0.39,0.47c0,0.17,0.05,0.36-0.07,0.52c-0.4,0-0.8-0.01-1.2-0.01
			c-0.1-0.9-0.12-0.92-1.04-1.12c-0.42-0.09-0.75-0.3-1.05-0.6c-0.43-0.44-0.44-0.98-0.04-1.44c0.51-0.59,1.21-0.72,1.92-0.88"/>
		<path class="st4" d="M29.09,32.58c0.99,0,1.74,0.72,1.77,1.64c0.04,0.95-0.96,1.64-1.78,1.63c-1.09-0.01-1.73-0.6-1.74-1.62
			C27.34,33.26,28.06,32.58,29.09,32.58z"/>
		<path class="st4" d="M42.79,35.84c-0.91,0-1.62-0.7-1.63-1.6c-0.01-0.95,0.7-1.63,1.67-1.68c1.14-0.05,1.81,0.96,1.79,1.66
			C44.59,34.99,43.99,35.9,42.79,35.84z"/>
	</g>
</g>
</svg>
